<svg width="20" height="20" viewBox="0 0 20 20" fill="none" xmlns="http://www.w3.org/2000/svg">
<path fill-rule="evenodd" clip-rule="evenodd" d="M0 9.66472V19.3294L3.02371 19.3271C6.29266 19.3245 6.78434 19.2455 7.64831 18.5844C8.35298 18.0451 8.95652 17.1115 9.27622 16.0662C9.76207 14.4779 9.70477 12.2208 9.14224 10.7867C8.9464 10.2871 8.29251 9.25245 8.17019 9.24845C8.13493 9.2472 8.05164 9.19087 7.98508 9.12294C7.89046 9.02657 7.9614 8.84708 8.31069 8.29951C9.43337 6.53943 9.57104 3.89033 8.63623 2.03718C8.18263 1.13809 7.26239 0.345583 6.43342 0.140138C6.12676 0.0642013 4.55375 0.00165673 2.93793 0.00110446L0 0V9.66472ZM12.0948 1.27712V2.55425H14.8826H17.6705V1.27712V0H14.8826H12.0948V1.27712ZM5.88469 4.06954C6.48223 4.35506 6.86232 4.98285 6.86232 5.68396C6.86232 6.41309 6.67575 6.94811 6.28537 7.3387C5.97734 7.647 5.87526 7.66495 4.18172 7.7072L2.40181 7.7518V5.80877V3.86589H3.93022C5.0275 3.86589 5.57889 3.92332 5.88469 4.06954ZM13.7059 4.63258C12.1573 5.2369 11.0667 7.05676 10.683 9.67687C10.5174 10.8081 10.5157 13.205 10.68 14.3259C10.9348 16.0655 11.5712 17.4918 12.5088 18.4247C13.304 19.2159 14.92 19.5487 16.175 19.1798C17.167 18.8882 18.1676 17.8851 18.6893 16.6592C19.1864 15.4908 19.2144 15.5231 17.7768 15.6018C16.5974 15.6664 16.4779 15.6983 15.9985 16.076C14.7477 17.0613 13.3691 16.1729 12.9883 14.1362C12.9215 13.779 12.8668 13.3413 12.8668 13.1635V12.8403H16.0964H19.326L19.2771 11.3501C19.1796 8.3731 18.4609 6.30692 17.1535 5.24463C16.1852 4.45792 14.7888 4.20995 13.7059 4.63258ZM15.5634 7.60586C16.2241 7.87371 16.6978 8.71841 16.8533 9.90634L16.9121 10.3551H14.9323H12.9526V10.0369C12.9526 9.86202 13.0519 9.39839 13.1732 9.00669C13.5755 7.70706 14.4903 7.17095 15.5634 7.60586ZM6.14649 11.9735C6.64804 12.4052 6.86232 12.8919 6.86232 13.5996C6.86232 14.3099 6.6459 14.7992 6.14649 15.2178C5.82482 15.4876 5.62478 15.5225 4.09595 15.5752L2.40181 15.6339V13.6054V11.577L4.09595 11.6218C5.6524 11.6631 5.81907 11.6917 6.14649 11.9735Z" fill="#2CCB69"/>
</svg>
