<svg width="20" height="20" viewBox="0 0 20 20" fill="none" xmlns="http://www.w3.org/2000/svg">
<path fill-rule="evenodd" clip-rule="evenodd" d="M9.02414 0.233356C8.4439 0.27317 7.67735 0.414089 7.07482 0.591689C3.66806 1.59608 1.0183 4.52922 0.314159 8.07544C-0.199557 10.6626 0.281218 13.3177 1.65117 15.4592C2.61468 16.9654 3.83968 18.1139 5.30754 18.8874C5.84139 19.1686 6.59521 19.4824 6.8292 19.5207C7.04804 19.5566 7.24066 19.4486 7.33098 19.2394C7.39811 19.084 7.40128 19.0071 7.37695 18.1327L7.35077 17.193L7.02582 17.2445C6.66087 17.3024 6.05747 17.2816 5.56869 17.1943C5.1728 17.1236 4.77033 16.9187 4.51689 16.6589C4.31641 16.4533 4.2647 16.364 4.00208 15.7704C3.76485 15.2341 3.49411 14.8781 3.12828 14.6215C2.87613 14.4447 2.66912 14.2131 2.68547 14.1261C2.70723 14.0104 2.86789 13.959 3.14313 13.9797C3.6746 14.0197 4.23104 14.4173 4.62746 15.0403C4.89892 15.4668 5.16668 15.7319 5.49423 15.8983C5.72999 16.0182 5.7947 16.0331 6.13427 16.0461C6.52461 16.061 6.91556 16.0006 7.23287 15.8765C7.38961 15.8152 7.39471 15.8075 7.45224 15.5466C7.52541 15.2146 7.6636 14.9111 7.85361 14.6649L7.99961 14.4757L7.69023 14.4311C6.694 14.2876 5.98457 14.0385 5.32296 13.6001C4.45694 13.0263 3.94277 12.1329 3.69545 10.7723C3.6185 10.3489 3.60641 9.26695 3.67418 8.86884C3.784 8.22399 4.04363 7.63264 4.43069 7.14597L4.59977 6.93339L4.52649 6.69222C4.32899 6.04226 4.36651 5.25633 4.6323 4.47509C4.69905 4.27887 4.71537 4.27094 5.01988 4.28704C5.46488 4.31053 6.42039 4.70341 7.07032 5.13011L7.34095 5.30779L7.54978 5.26589C7.66465 5.24287 7.88111 5.1969 8.03085 5.16378C9.05443 4.93723 10.5049 4.93723 11.5285 5.16378C11.6782 5.1969 11.8942 5.24225 12.0084 5.26453L12.2162 5.30504L12.5751 5.08152C13.4303 4.54891 14.405 4.19139 14.7466 4.28499C14.8437 4.31161 14.871 4.35119 14.9456 4.57387C15.1081 5.05915 15.1536 5.38661 15.1346 5.93307C15.1217 6.30111 15.0955 6.50607 15.0382 6.68607L14.9595 6.93339L15.1248 7.14113C15.4605 7.56331 15.7117 8.08535 15.8505 8.64953C15.9348 8.99223 15.9441 10.2623 15.8658 10.753C15.7437 11.5192 15.4337 12.3233 15.0728 12.8102C14.4488 13.652 13.3184 14.2264 11.8877 14.4285L11.5591 14.4749L11.7054 14.6645C11.8854 14.8977 12.0262 15.1968 12.1076 15.519C12.1591 15.7226 12.1719 16.0494 12.184 17.4662C12.2001 19.3606 12.1996 19.3574 12.4526 19.4803C12.6272 19.5652 12.7686 19.5392 13.3203 19.3209C16.1062 18.2188 18.3071 15.7133 19.1103 12.7298C19.6441 10.7469 19.5312 8.44442 18.8065 6.53497C18.16 4.83145 17.0122 3.27619 15.6033 2.19454C14.0755 1.0216 12.3356 0.359765 10.4414 0.230918C9.77973 0.185918 9.71419 0.186034 9.02414 0.233356Z" fill="#2CCB69"/>
</svg>
