<svg width="20" height="20" viewBox="0 0 20 20" fill="none" xmlns="http://www.w3.org/2000/svg">
<path fill-rule="evenodd" clip-rule="evenodd" d="M7.99231 0.118487C5.97483 0.481042 4.16965 1.46032 2.70371 2.98743C1.89839 3.82626 1.4676 4.44912 0.958344 5.51061C-0.266561 8.06408 -0.27914 11.0761 0.924582 13.6228L1.30083 14.4189L0.632579 16.8557C0.265018 18.1959 -0.0191938 19.3089 0.00101433 19.329C0.0212225 19.3491 1.1588 19.0729 2.5289 18.7152L5.0201 18.0649L5.77185 18.3848C7.11111 18.9548 8.32506 19.2108 9.68874 19.2108C12.1645 19.2108 14.5104 18.2755 16.3129 16.5696C18.3097 14.68 19.3427 12.266 19.3299 9.51899C19.318 6.9937 18.4241 4.79414 16.6746 2.98589C15.1652 1.42583 13.3881 0.4724 11.3212 0.113722C10.4364 -0.0398124 8.86061 -0.0375509 7.99231 0.118487ZM11.3359 1.80381C14.5462 2.4837 17.0051 5.02626 17.5711 8.25138C17.7385 9.20465 17.683 10.6646 17.4446 11.5785C17.2414 12.3575 16.6676 13.5705 16.186 14.2392C15.173 15.6459 13.4856 16.8193 11.8309 17.2676C9.88141 17.7957 7.9463 17.6038 6.10176 16.6994L5.27412 16.2937L3.84096 16.6667C3.05277 16.8719 2.38874 17.0208 2.36528 16.9974C2.34191 16.9742 2.49359 16.3342 2.70249 15.5753L3.08223 14.1955L2.59139 13.21C1.87704 11.7758 1.7467 11.2267 1.74403 9.64014C1.7424 8.68065 1.77779 8.20534 1.88142 7.79441C2.95205 3.5477 7.11517 0.909905 11.3359 1.80381ZM5.84652 5.26832C5.57148 5.42016 5.1355 5.99787 4.96588 6.43537C4.74879 6.99524 4.77224 8.04365 5.01555 8.65916C5.30139 9.38201 6.11198 10.515 7.00487 11.4395C8.31085 12.7918 9.18394 13.3651 10.7719 13.9134C12.2097 14.4099 13.2424 14.2777 14.0534 13.4934C14.5644 12.9992 14.7766 11.9782 14.4161 11.7486C13.9385 11.4443 12.2353 10.7232 12.1042 10.7697C12.0255 10.7976 11.7653 11.0716 11.5261 11.3786C11.2867 11.6856 11.0228 11.9583 10.9396 11.9846C10.7264 12.0519 9.47854 11.3922 8.85428 10.882C8.31369 10.4402 7.41033 9.32087 7.32666 8.98909C7.28779 8.83499 7.34241 8.71861 7.57273 8.46492C7.73553 8.28562 7.92747 8.01635 7.99913 7.86669C8.12801 7.59783 8.12444 7.58192 7.70437 6.55781C7.10997 5.10881 7.15023 5.1571 6.54203 5.1605C6.26407 5.16211 5.95113 5.21065 5.84652 5.26832Z" fill="#2CCB69"/>
</svg>
