<svg width="20" height="20" viewBox="0 0 20 20" fill="none" xmlns="http://www.w3.org/2000/svg">
<path fill-rule="evenodd" clip-rule="evenodd" d="M2.10516 0.00483237C1.47562 0.0585813 0.980243 0.2845 0.589881 0.695899C0.268355 1.03475 0.0834681 1.42843 0.0178086 1.91402C-0.00873971 2.11033 -0.00528395 2.41087 0.0260267 2.62988C0.0909363 3.08388 0.278073 3.47899 0.584191 3.80835C0.994422 4.24972 1.5134 4.47688 2.16914 4.50208C2.97687 4.53311 3.60824 4.30315 4.08139 3.8056C4.46583 3.40134 4.65981 2.89995 4.66018 2.30963C4.66063 1.56974 4.41938 0.987768 3.93036 0.549111C3.68455 0.328621 3.3776 0.165731 3.04991 0.0818998C2.82824 0.0251895 2.66223 0.00470291 2.39121 0.000608827C2.28065 -0.00106602 2.15193 0.000835377 2.10516 0.00483237ZM14.3859 5.97667C13.6014 5.9982 12.8562 6.22504 12.2367 6.63088C12.1167 6.7095 11.9166 6.86056 11.8012 6.95971C11.7024 7.04467 11.4867 7.26022 11.3731 7.38763C11.21 7.57055 11.0425 7.79165 10.8925 8.02206L10.8219 8.13058V7.20689V6.2832H8.74904H6.6762L6.68129 6.37422C6.69506 6.62104 6.70223 7.2723 6.70886 8.88043C6.71765 11.01 6.70975 13.7179 6.68092 18.4623L6.67567 19.326H8.74867H10.8217L10.8241 15.4929C10.8264 11.9384 10.8275 11.6521 10.8397 11.5545C10.8808 11.2262 10.9341 11.0395 11.0613 10.7778C11.3232 10.2391 11.7486 9.79248 12.1914 9.5915C12.5392 9.43362 12.9629 9.37542 13.3924 9.42648C13.764 9.47065 14.0613 9.58446 14.3086 9.77725C14.839 10.1906 15.122 10.9209 15.1743 12.0108C15.1794 12.1182 15.1822 13.4253 15.1822 15.7509V19.326H17.2541H19.326L19.3259 15.5293C19.3259 11.7455 19.3241 11.4598 19.2988 11.0782C19.1886 9.41705 18.7129 8.16815 17.8562 7.29039C17.289 6.70924 16.6476 6.33304 15.8818 6.13228C15.4266 6.01295 14.9335 5.96165 14.3859 5.97667ZM0.238119 12.8046V19.326H2.31003H4.38194V12.8046V6.2832H2.31003H0.238119V12.8046ZM10.8219 8.16032C10.8219 8.16947 10.8167 8.17651 10.81 8.17651C10.8005 8.17651 10.7998 8.17324 10.8064 8.16032C10.811 8.15142 10.8163 8.14414 10.8183 8.14414C10.8203 8.14414 10.8219 8.15142 10.8219 8.16032Z" fill="#2CCB69"/>
</svg>
