<svg width="949" height="519" viewBox="0 0 949 519" fill="none" xmlns="http://www.w3.org/2000/svg">
<path class="st0" fill-rule="evenodd" clip-rule="evenodd" d="M0.672 0.683C0.303 1.053 0 3.98 0 7.189V13.022H13.5C25.164 13.022 27 13.238 27 14.609C27 16.273 217.845 516.948 218.995 518.3C219.639 519.058 412 16.685 412 14.246C412 13.33 416.167 13.022 428.548 13.022H445.095L444.798 6.772L444.5 0.522L402.25 0.261L360 0V6.511V13.022H377.132H394.263L393.696 16.772C393.384 18.835 364.129 96.797 328.684 190.022L264.239 359.522H260.535H256.831L196.439 189.022C163.223 95.247 136.036 17.284 136.023 15.772L136 13.022H152.548H169.095L168.798 6.772L168.5 0.522L84.922 0.266C38.955 0.126 1.042 0.313 0.672 0.683ZM458.672 0.683C458.302 1.053 458 3.98 458 7.189V13.022H477H496V255.022V497.022H477H458V502.522V508.022H545H632V502.522V497.022H613H594V376.522V256.022H707.5H821V376.522V497.022H803H785V502.522V508.022H867H949V502.522V497.022H930H911V255.022V13.022H930H949V6.522V0.022H867H785V6.522V13.022H803H821V127.522V242.022H707.5H594V127.522V13.022H613.048H632.095L631.798 6.772L631.5 0.522L545.422 0.266C498.079 0.126 459.042 0.313 458.672 0.683Z" fill="#2CCB69"/>
</svg>